<svg xmlns="http://www.w3.org/2000/svg" xmlns:xlink="http://www.w3.org/1999/xlink" version="1.1" width="256" height="256" viewBox="0 0 256 256" xml:space="preserve">

<defs>
</defs>
<g style="stroke: none; stroke-width: 0; stroke-dasharray: none; stroke-linecap: butt; stroke-linejoin: miter; stroke-miterlimit: 10; fill: none; fill-rule: nonzero; opacity: 1;" transform="translate(1.4065934065934016 1.4065934065934016) scale(2.81 2.81)" >
	<circle cx="45" cy="45" r="45" style="stroke: none; stroke-width: 1; stroke-dasharray: none; stroke-linecap: butt; stroke-linejoin: miter; stroke-miterlimit: 10; fill: rgb(255,200,67); fill-rule: nonzero; opacity: 1;" transform="  matrix(1 0 0 1 0 0) "/>
	<circle cx="45" cy="45" r="35" style="stroke: none; stroke-width: 1; stroke-dasharray: none; stroke-linecap: butt; stroke-linejoin: miter; stroke-miterlimit: 10; fill: rgb(211,135,0); fill-rule: nonzero; opacity: 1;" transform="  matrix(1 0 0 1 0 0) "/>
	<path d="M 58.316 60.627 H 40.501 c 2.451 -3.603 3.034 -8.072 3.143 -12.627 h 8.036 c 1.657 0 3 -1.343 3 -3 c 0 -1.657 -1.343 -3 -3 -3 h -8.201 c -0.122 -7.376 1.565 -10.379 3.121 -11.58 c 1.859 -1.435 4.992 -1.398 9.309 0.109 c 1.563 0.547 3.276 -0.278 3.821 -1.842 c 0.547 -1.564 -0.278 -3.275 -1.843 -3.822 c -6.353 -2.219 -11.384 -1.95 -14.954 0.805 c -3.767 2.908 -5.561 8.273 -5.451 16.33 h -5.797 c -1.657 0 -3 1.343 -3 3 c 0 1.657 1.343 3 3 3 h 5.948 c -0.247 7.801 -2.038 10.924 -7.018 12.824 c -1.352 0.516 -2.143 1.924 -1.881 3.347 s 1.503 2.456 2.95 2.456 h 26.632 c 1.657 0 3 -1.343 3 -3 S 59.974 60.627 58.316 60.627 z" style="stroke: none; stroke-width: 1; stroke-dasharray: none; stroke-linecap: butt; stroke-linejoin: miter; stroke-miterlimit: 10; fill: rgb(255,200,67); fill-rule: nonzero; opacity: 1;" transform=" matrix(1 0 0 1 0 0) " stroke-linecap="round" />
</g>
</svg>