<svg width="30" height="30" viewBox="0 0 30 30" fill="none" xmlns="http://www.w3.org/2000/svg">
<rect width="30" height="30" rx="15" fill="#01A85E"/>
<path d="M15.3067 13.5333C12.28 12.7467 11.3067 11.9333 11.3067 10.6667C11.3067 9.21333 12.6533 8.2 14.9067 8.2C17.28 8.2 18.16 9.33333 18.24 11H21.1867C21.0933 8.70667 19.6933 6.6 16.9067 5.92V3H12.9067V5.88C10.32 6.44 8.24 8.12 8.24 10.6933C8.24 13.7733 10.7867 15.3067 14.5067 16.2C17.84 17 18.5067 18.1733 18.5067 19.4133C18.5067 20.3333 17.8533 21.8 14.9067 21.8C12.16 21.8 11.08 20.5733 10.9333 19H8C8.16 21.92 10.3467 23.56 12.9067 24.1067V27H16.9067V24.1333C19.5067 23.64 21.5733 22.1333 21.5733 19.4C21.5733 15.6133 18.3333 14.32 15.3067 13.5333Z" fill="white"/>
</svg>